<?xml version="1.0" encoding="iso-8859-1"?>
<!-- Generator: Adobe Illustrator 21.0.0, SVG Export Plug-In . SVG Version: 6.00 Build 0)  -->
<svg xmlns="http://www.w3.org/2000/svg" xmlns:xlink="http://www.w3.org/1999/xlink" version="1.1" id="Capa_1" x="0px" y="0px" viewBox="0 0 512 512" style="enable-background:new 0 0 512 512;" xml:space="preserve" width="512" height="512">
<g>
	<path style="fill:#FCD82D;" d="M497,91c-24.901,0-45-20.099-45-45c0-8.401-6.599-15-15-15s-15,6.599-15,15   c0,24.901-20.099,45-45,45c-8.401,0-15,6.599-15,15s6.599,15,15,15c24.901,0,45,20.099,45,45c0,8.399,6.599,15,15,15   s15-6.601,15-15c0-24.901,20.099-45,45-45c8.401,0,15-6.599,15-15S505.401,91,497,91z"/>
	<g>
		<g>
			<path style="fill:#E0F3FC;" d="M300,301c-3.3,0-6.599,0.3-9.901,0.601C272.999,264.699,236.4,241,195,241     s-77.999,23.699-95.099,60.601C47.401,295.901,0,338.2,0,391c0,49.501,40.499,90,90,90h210c49.501,0,90-40.499,90-90     S349.501,301,300,301z"/>
		</g>
	</g>
	<path style="fill:#FCD82D;" d="M441.665,227.274c-5.112-2.563-11.147-1.992-15.732,1.436C415.283,236.752,402.861,241,390,241   c-33.091,0-60-26.909-60-60c0-12.861,4.248-25.283,12.29-35.933c3.413-4.556,3.823-10.649,1.289-15.747   c-2.534-5.083-7.896-8.32-13.579-8.32c-66.167,0-120,53.833-120,120c0,8.013,0.806,16.04,2.373,23.862l144.785,92.593   c1.289,0,2.593-0.161,3.896-0.513c52.368-14.004,88.945-61.685,88.916-116.25C449.971,235.009,446.748,229.809,441.665,227.274z"/>
	<path style="fill:#BDD9F1;" d="M390,391c0,49.501-40.499,90-90,90H195V241c41.4,0,77.999,23.699,95.099,60.601   C293.401,301.3,296.7,301,300,301C349.501,301,390,341.499,390,391z"/>
	<path style="fill:#F9BD13;" d="M512,106c0,8.401-6.599,15-15,15c-24.901,0-45,20.099-45,45c0,8.399-6.599,15-15,15V31   c8.401,0,15,6.599,15,15c0,24.901,20.099,45,45,45C505.401,91,512,97.599,512,106z"/>
</g>















</svg>
